<svg width="24" height="24" xmlns="http://www.w3.org/2000/svg" fill="#000000">
 <g>
  <title>Layer 1</title>
  <path d="m-0.0625,0.125l24,0l0,24l-24,0l0,-24z" fill="none" id="svg_1"/>
  <path transform="rotate(45 17.307 16.883)" fill="#535F75" stroke="null" d="m21.43289,15.31769c-0.02063,-2.2641 -1.85666,-4.08982 -4.12592,-4.08982s-4.10529,1.82572 -4.12592,4.08982l0,3.09444c0,2.27957 1.84635,4.12592 4.12592,4.12592s4.12592,-1.84635 4.12592,-4.12592l0,-3.09444zm-1.03148,0l-2.5787,0l0,-3.01192c1.44923,0.2424 2.55807,1.49565 2.5787,3.01192zm-3.61018,-3.01192l0,3.01192l-2.5787,0c0.02063,-1.51627 1.12947,-2.76952 2.5787,-3.01192zm3.61018,6.10636c0,1.7071 -1.38734,3.09444 -3.09444,3.09444s-3.09444,-1.38734 -3.09444,-3.09444l0,-2.06296l6.18888,0l0,2.06296l0.00001,0z" id="svg_2"/>
  <path stroke="null" id="svg_8" d="m11.22995,6.38268c0,0 0.00156,0.01344 0.05851,0c0.25468,-0.06012 0.58842,-0.21205 1.05325,-0.29257c0.53156,-0.09207 1.17867,-0.20818 1.75541,-0.4096c0.29749,-0.10389 0.52662,-0.11703 0.70216,-0.11703c0.17554,0 0.35108,0 0.46811,0l0.05851,0.05851l0.05851,0" fill="none" stroke-dasharray="2,2"/>
  <path fill="none" opacity="NaN" d="m-119,4" id="svg_9"/>
  <path fill="none" opacity="NaN" d="m-198,-80c34,-46 15,-76 33,-46c18,30 66,34 20,29" id="svg_10"/>
  <path transform="rotate(31.7522 7.50067 6.1021)" stroke="null" fill="#6D97AB" id="svg_23" d="m8.67049,12.60313c0.58129,-0.21335 1.05807,-0.41203 0.1551,-0.41784c-0.79745,0.10718 -2.86039,-0.68061 -1.20703,-1.06783c1.03437,-0.40386 3.38835,0.52897 3.4009,-1.06665c-0.18712,-0.99997 -3.22356,-0.2192 -2.22467,-1.56029c1.10009,-0.44982 3.28149,0.61001 3.65053,-0.78191c-0.33829,-1.34963 -2.4542,-0.4883 -3.51771,-0.8613c-1.03099,0.21266 -1.3025,-1.14306 -0.1454,-0.93843c2.67491,-0.14431 5.36847,0.06748 8.03416,-0.22702c0.4306,-0.23851 0.7489,-1.7057 0.2055,-1.80451c-3.88309,-0.08046 -7.77304,-0.00651 -11.64998,-0.24651c-1.39286,-0.01447 -0.32864,-1.50177 0.7006,-1.15248c0.98041,-0.32105 1.36895,-1.16286 2.08851,-1.99408c0.3677,-1.8169 -1.39952,-1.14255 -2.12125,-0.61088c-0.80591,0.52834 -2.1921,1.62503 -2.92747,2.20076c-0.64462,0.46612 -2.12978,0.98335 -3.03321,1.60818c-0.77222,0.27443 -1.61727,0.13781 -2.37574,0.18708c0,2.46169 0,4.92335 0,7.38504c2.14583,0.93435 4.40383,1.75509 6.78277,1.6612c1.39357,-0.00567 2.82716,0.04644 4.18438,-0.31253l0,0zm-8.84091,0.78956c-1.09541,-0.42089 -2.18884,-0.84714 -3.27433,-1.29309c0.05195,-3.07413 0.10389,-6.14829 0.15584,-9.22242c0.86666,-0.03291 2.15265,0.39697 2.77039,-0.23602c1.66082,-0.53305 2.73911,-1.71204 4.19505,-2.59693c1.02459,-0.80509 1.84299,-1.07987 2.90126,-1.69044c0.8038,-0.37171 1.23902,-0.18189 2.14415,-0.01983c0.39477,0.64601 0.88484,0.97989 0.63054,2.21055c-0.53064,0.26692 -1.21927,2.06094 -0.17647,2.0752c2.90315,0.2782 5.85305,-0.11282 8.73337,0.37341c0.71722,0.971 0.854,3.15244 -0.45868,3.76821c-1.25622,0.3632 -2.58072,0.18303 -3.87136,0.22671c-0.00008,0.91861 0.15179,2.09088 -0.8678,2.55233c-0.75286,0.98194 -0.80581,2.42445 -2.01894,3.14296c-1.02029,1.04547 -2.47269,1.36843 -3.88937,1.33396c-2.323,0.03149 -4.76818,0.25419 -6.97362,-0.62452l0,-0.00007l0,0z"/>
 </g>

</svg>